<svg aria-hidden="true" width="0" height="0" style="position:absolute"><symbol viewBox="0 0 24 24" id="34f98b3929cd4432c834121220af125b" xmlns="http://www.w3.org/2000/svg"><path d="M12 21c-1.654 0-3-1.346-3-3l.053-3.053L6.018 15C4.346 15 3 13.654 3 12s1.346-3 3-3l3.053-.054L9 6.018C9 4.346 10.346 3 12 3s3 1.346 3 3l.055 2.946L18.018 9C19.654 9 21 10.346 21 12s-1.346 3-3 3l-2.945-.053L15 18.018C15 19.654 13.654 21 12 21zm-1-8v5.018c0 .533.449.982 1 .982s1-.449 1-1v-5h5.018c.533 0 .982-.449.982-1s-.449-1-1-1h-5V6c0-.569-.449-1-1-1s-1 .449-1 1v5H6c-.569 0-1 .449-1 1s.449 1 1 1h5z"/></symbol><symbol viewBox="0 0 32 32" id="72cda10f669f41d1d88aad2795c06112" xmlns="http://www.w3.org/2000/svg"><path d="M16 0C7.289 0 .204 6.961.005 15.624.19 8.066 5.937 2 13 2c7.18 0 13 6.268 13 14a3 3 0 106 0c0-8.837-7.163-16-16-16zm0 32c8.711 0 15.796-6.961 15.995-15.624C31.81 23.934 26.063 30 19 30c-7.18 0-13-6.268-13-14a3 3 0 10-6 0c0 8.837 7.163 16 16 16z"/></symbol></svg>